# xmcd
#
# Track frame offsets:
#	150
#	11815
#	22569
#	33809
#	44354
#	55782
#	66131
#	76319
#	86245
#	97924
#	109554
#	122689
#
# Disc length: 1809 seconds
#
# Revision: 1
# Processed by: cddbd v1.5.2PL0 Copyright (c) Steve Scherf et al.
# Submitted via: EasyCDDAExtractor 10.5.1.1
#
DISCID=84070f0c
DTITLE=Patsy Cline - Pure Patsy Cline
DYEAR=2007
DGENRE=Country
TTITLE0=Walkin' After Midnight
TTITLE1=Honky Tonk Merry Go Round
TTITLE2=Hidin' Out
TTITLE3=Lovesick Blues
TTITLE4=Crazy Dreams
TTITLE5=Pick Me Up On Your Way Down
TTITLE6=Three Cigarettes In An Ashtray
TTITLE7=Turn The Cards Slowly
TTITLE8=Let The Teardrops Fall
TTITLE9=Lonely Street
TTITLE10=Life's Railway To Heaven
TTITLE11=Just A Closer Walk With Thee (With Willie Neslon)
EXTD=
EXTT0=
EXTT1=
EXTT2=
EXTT3=
EXTT4=
EXTT5=
EXTT6=
EXTT7=
EXTT8=
EXTT9=
EXTT10=
EXTT11=
PLAYORDER=
